<?xml version="1.0"?>
<svg xmlns="http://www.w3.org/2000/svg" xmlns:xlink="http://www.w3.org/1999/xlink" xmlns:svgjs="http://svgjs.com/svgjs" version="1.1" width="512" height="512" x="0" y="0" viewBox="0 0 512 512" style="enable-background:new 0 0 512 512" xml:space="preserve"><g transform="matrix(0.8,0,0,0.8,51.20000152587866,51.199996948242074)"><g xmlns="http://www.w3.org/2000/svg" id="S"><path d="m259.823 512c152.666 0 207.056-82.797 207.056-159.335 0-116.415-88.034-145.442-189.434-169.351-48.633-11.455-90.63-21.357-90.63-44.224 0-24.185 43.477-30.571 66.46-30.571 77.446 0 65.822 44.618 75.498 67.617l124.893-5.288c-1.981-4.395 17.742-170.848-199.409-170.848-140.259 0-190.034 78.798-190.034 145.419 0 114.272 109.951 140.728 190.239 160.049 42.073 10.132 85.576 18.168 85.576 47.52 0 38.613-49.805 48.911-79.233 48.911-91.273 0-88.027-80.19-92.446-90.132l-123.238 11.587c4.45 9.553-5.58 188.646 214.702 188.646z" fill="#525df9" data-original="#000000" style=""/></g></g></svg>
